
<svg xmlns="http://www.w3.org/2000/svg" xmlns:xlink="http://www.w3.org/1999/xlink" preserveAspectRatio="xMidYMid meet" version="1.0" viewBox="5.0 5.0 90.0 90.0" zoomAndPan="magnify" style="fill: rgb(131, 57, 51);" original_string_length="936"><g id="__id171_sjasxmi74"><path d="M50,5C25.2,5,5,25.2,5,50c0,24.8,20.2,45,45,45c24.9,0,45-20.2,45-45C95,25.2,74.9,5,50,5L50,5z M70.1,34.8H59.5V24.2 L70.1,34.8z M71.3,76.1c0,0.5-0.4,0.9-0.9,0.9H29.6c-0.5,0-0.9-0.4-0.9-0.9V23.9c0-0.5,0.4-0.9,0.9-0.9H55v15.5 c0,0.5,0.4,0.9,0.9,0.9h15.5V76.1z M48.3,40.9c0,0-7.3,7.2-7.5,7.5c-0.9,0.9-0.9,2.5,0,3.4c1,0.9,2.5,0.9,3.4,0 c0.3-0.2,3.4-3.4,3.4-3.4v17.2c0,1.4,1.1,2.4,2.4,2.4c1.4,0,2.4-1.1,2.4-2.4V48.4c0,0,3.3,3.3,3.4,3.4c1,0.9,2.5,0.9,3.4,0 c1-1,1-2.5,0-3.4c-0.1-0.1-7.5-7.5-7.5-7.5C50.8,39.9,49.2,39.9,48.3,40.9z" style="fill: inherit;"/></g></svg>